<?xml version="1.0" encoding="UTF-8"?>
<svg id="Layer_3" xmlns="http://www.w3.org/2000/svg" viewBox="0 0 116.07 46.3">
<defs>
<style>.cls-1{fill:#fff;}</style>
</defs>
<g id="ddC5Og.tif">
<g>
<path d="M24.03,46.3h-1.52c.02-.09,.03-.19,.06-.28,1.37-3.78,2.75-7.56,4.12-11.33,.17-.47,.34-.93,.52-1.41,.09,0,.17,0,.26,0,2.03,0,4.06,0,6.09,0,.2,0,.41,0,.61-.05,1.13-.27,1.97-.9,2.38-2.02,.72-1.95,1.42-3.9,2.13-5.85,.98-2.7,1.96-5.39,2.94-8.09,.2-.54,.31-1.09,.25-1.67-.11-1.07-.66-1.81-1.63-2.25-.51-.23-1.05-.3-1.6-.3-2.92,0-5.83,0-8.75,0h-.21c-3.96,10.88-7.91,21.74-11.87,32.61-.08-.01-.13-.02-.19-.03-.49-.14-.98-.26-1.46-.41-4.47-1.44-8.18-3.99-11.1-7.66C2.03,33.73,.37,29.37,.07,24.5,.06,24.32,.02,24.14,0,23.96c0-.55,0-1.1,0-1.64,.01-.07,.03-.13,.04-.2,.03-.32,.06-.64,.08-.97,.12-1.5,.39-2.98,.81-4.42,1.32-4.52,3.8-8.3,7.39-11.33,2.27-1.92,4.84-3.33,7.66-4.26,.3-.1,.6-.18,.95-.29-3.94,10.83-7.87,21.62-11.8,32.42h4.89c2.09-5.73,4.17-11.45,6.26-17.18h3.7c-1.05,2.87-2.09,5.73-3.13,8.59-1.04,2.86-2.08,5.72-3.13,8.59h4.89c.03-.09,.07-.17,.1-.26,.4-1.11,.81-2.22,1.21-3.32,1.5-4.13,3-8.26,4.51-12.38,.19-.52,.31-1.05,.27-1.61-.06-.95-.48-1.69-1.3-2.19-.53-.32-1.11-.46-1.73-.47-1.34,0-2.68,0-4.03,0-.07,0-.15,0-.25,0C18.98,8.67,20.56,4.35,22.13,.02c1.3-.05,2.57-.02,3.83,.13,1.07,.13,2.13,.33,3.18,.61,4.98,1.36,9.09,4.05,12.27,8.12,3.18,4.06,4.83,8.69,4.89,13.86,.01,.88,0,1.76-.08,2.63-.12,1.18-.32,2.35-.61,3.5-1.83,7.18-7.08,13.11-13.99,15.82-1.46,.57-2.96,.99-4.51,1.25-.76,.13-1.53,.23-2.3,.27-.26,.01-.52,.05-.77,.08Z"/><path d="M33.49,16.07c-1.72,4.72-3.43,9.42-5.16,14.14h3.7c1.72-4.71,3.43-9.42,5.15-14.14h-3.69Z"/><path d="M33.49,16.07h3.69c-1.72,4.73-3.44,9.44-5.15,14.14h-3.7c1.72-4.72,3.44-9.43,5.16-14.14Z"/></g></g><g><path d="M53.53,27.76c-.06,0-.09-.03-.09-.09l.04-5.03-.04-5.04c0-.06,.03-.09,.09-.09h6.09s.04,0,.06,.03c.02,.02,.03,.04,.03,.06v.86s0,.04-.03,.06c-.02,.02-.04,.03-.06,.03h-4.8l-.03,3.68h4.58c.06,0,.09,.03,.09,.09v.86c0,.06-.03,.09-.09,.09h-4.58l.03,4.42c0,.06-.03,.09-.09,.09h-1.21Z"/><path d="M61.44,27.45c-.54-.32-.95-.78-1.23-1.37-.28-.59-.42-1.28-.42-2.07s.14-1.48,.42-2.08c.28-.6,.69-1.06,1.23-1.38s1.18-.49,1.93-.49,1.4,.16,1.93,.48,.94,.78,1.22,1.37,.42,1.28,.42,2.08-.14,1.49-.42,2.08-.69,1.05-1.22,1.38c-.54,.32-1.18,.49-1.93,.49s-1.4-.16-1.93-.48Zm3.58-1.22c.37-.51,.55-1.25,.55-2.23s-.19-1.71-.56-2.24c-.37-.52-.92-.79-1.65-.79-.73,0-1.28,.27-1.66,.79s-.56,1.27-.56,2.24,.19,1.71,.56,2.22,.93,.77,1.65,.77,1.28-.26,1.65-.77Z"/><path d="M68.03,27.17c-.45-.51-.67-1.26-.67-2.23v-1.49l-.02-3.13c0-.06,.03-.09,.09-.09h1.19c.06,0,.09,.03,.09,.09l-.02,3.13v1.44c0,.68,.14,1.19,.42,1.53s.67,.51,1.16,.51,.94-.2,1.31-.59c.37-.4,.63-.95,.77-1.68v-1.21l-.02-3.13c0-.06,.03-.09,.09-.09h1.2c.06,0,.09,.03,.09,.09l-.03,3.34v4.03c.01,.06-.01,.09-.07,.09h-1.13c-.06,0-.09-.03-.09-.09l.04-1.23c-.26,.43-.6,.79-1.03,1.07-.43,.28-.92,.42-1.48,.42-.79,0-1.41-.26-1.86-.77Z"/><path d="M80.7,24.54l.02,3.13c0,.06-.03,.09-.09,.09h-1.19c-.06,0-.09-.03-.09-.09l.02-3.13v-1.44c0-.68-.14-1.19-.42-1.53-.28-.34-.67-.5-1.17-.5s-.93,.2-1.3,.59c-.37,.4-.63,.95-.77,1.68v1.21l.02,3.13c0,.06-.03,.09-.09,.09h-1.2c-.06,0-.09-.03-.09-.09l.03-3.34v-4.03c-.01-.06,.01-.09,.07-.09h1.13c.05,0,.08,.03,.08,.09l-.03,1.23c.26-.43,.6-.79,1.03-1.07,.43-.28,.92-.42,1.48-.42,.79,0,1.41,.26,1.86,.77s.67,1.26,.67,2.23v1.49Z"/><path d="M87.92,22.03l.02,5.65c0,.06-.03,.09-.09,.09h-1.17c-.06,0-.09-.03-.09-.09l.04-1.19c-.25,.45-.58,.8-.98,1.05-.41,.25-.88,.37-1.42,.37-.66,0-1.22-.17-1.69-.51-.47-.34-.82-.8-1.07-1.4-.24-.59-.36-1.26-.36-2s.13-1.4,.38-2c.25-.6,.61-1.07,1.09-1.42,.47-.35,1.03-.52,1.68-.52,.53,0,1,.11,1.39,.34,.4,.22,.72,.56,.96,1v-3.8c0-.06,.02-.09,.08-.09h1.17c.06,0,.09,.03,.09,.09l-.02,4.43Zm-1.81,4.2c.37-.5,.56-1.25,.56-2.23s-.18-1.71-.55-2.23c-.37-.53-.89-.79-1.56-.79s-1.21,.27-1.56,.79c-.35,.53-.53,1.24-.53,2.14s.18,1.68,.53,2.24,.87,.83,1.55,.83,1.19-.25,1.56-.75Z"/>
<path d="M95.2,23.91l.03,3.76c0,.06-.03,.09-.09,.09h-1.17c-.06,0-.09-.03-.09-.09l.03-1.19c-.25,.45-.58,.8-.98,1.04-.41,.25-.88,.37-1.42,.37-.66,0-1.22-.17-1.69-.51-.47-.34-.82-.8-1.07-1.39-.24-.59-.36-1.25-.36-2s.12-1.4,.37-2,.61-1.07,1.09-1.42,1.04-.52,1.68-.52c.54,0,1.01,.12,1.41,.35s.73,.58,.97,1.03l-.04-1.15c0-.06,.03-.09,.09-.09h1.17c.06,0,.09,.03,.09,.09l-.03,3.6Zm-1.81,2.31c.37-.5,.56-1.24,.56-2.22s-.18-1.7-.55-2.22c-.37-.52-.89-.78-1.56-.78s-1.21,.26-1.56,.79c-.35,.52-.53,1.23-.53,2.12,0,.93,.18,1.68,.53,2.23s.87,.83,1.55,.83,1.19-.25,1.56-.75Z"/>
<path d="M97.14,27.37c-.37-.35-.56-.9-.56-1.67v-3.68s0-.82,0-.82h-.89s-.04,0-.06-.03c-.02-.02-.03-.04-.03-.06v-.8s0-.05,.03-.06c.02-.02,.04-.03,.06-.03h.89v-1.8c-.01-.06,.01-.09,.07-.09h1.17c.06,0,.09,.03,.09,.09v1.8s1.76,0,1.76,0c.02,0,.04,0,.06,.03,.02,.02,.03,.04,.03,.06v.8s0,.05-.03,.06c-.02,.02-.04,.03-.06,.03h-1.78v4.47c0,.45,.08,.76,.23,.95,.15,.18,.39,.27,.72,.27,.31,0,.58-.03,.81-.09h.03s.07,.02,.07,.07v.75s-.02,.08-.07,.09c-.44,.12-.8,.18-1.08,.18-.61,0-1.1-.17-1.48-.52Z"/><path d="M100.3,27.76c-.06,0-.09-.03-.09-.09l.02-3.81-.02-3.56c0-.06,.03-.09,.09-.09h1.19c.06,0,.09,.03,.09,.09l-.02,3.56,.02,3.81c0,.06-.03,.09-.09,.09h-1.19Zm0-8.35c-.06,0-.09-.03-.09-.09v-1.24s0-.04,.03-.06c.02-.02,.04-.03,.06-.03h1.19s.04,0,.06,.03c.02,.02,.03,.04,.03,.06v1.24c0,.06-.03,.09-.09,.09h-1.19Z"/><path d="M103.74,27.45c-.54-.32-.95-.78-1.23-1.37-.28-.59-.42-1.28-.42-2.07s.14-1.48,.42-2.08c.28-.6,.69-1.06,1.23-1.38s1.18-.49,1.93-.49,1.4,.16,1.93,.48,.94,.78,1.22,1.37,.42,1.28,.42,2.08-.14,1.49-.42,2.08-.69,1.05-1.22,1.38c-.54,.32-1.18,.49-1.93,.49s-1.4-.16-1.93-.48Zm3.58-1.22c.37-.51,.55-1.25,.55-2.23s-.19-1.71-.56-2.24c-.37-.52-.92-.79-1.65-.79-.73,0-1.28,.27-1.66,.79s-.56,1.27-.56,2.24,.19,1.71,.56,2.22,.93,.77,1.65,.77,1.28-.26,1.65-.77Z"/><path d="M116.04,24.54l.02,3.13c0,.06-.03,.09-.09,.09h-1.19c-.06,0-.09-.03-.09-.09l.02-3.13v-1.44c0-.68-.14-1.19-.42-1.53-.28-.34-.67-.5-1.17-.5s-.93,.2-1.3,.59c-.37,.4-.63,.95-.77,1.68v1.21l.02,3.13c0,.06-.03,.09-.09,.09h-1.2c-.06,0-.09-.03-.09-.09l.03-3.34v-4.03c-.01-.06,.01-.09,.07-.09h1.13c.05,0,.08,.03,.08,.09l-.03,1.23c.26-.43,.6-.79,1.03-1.07,.43-.28,.92-.42,1.48-.42,.79,0,1.41,.26,1.86,.77s.67,1.26,.67,2.23v1.49Z"/></g></svg>