<svg xmlns="http://www.w3.org/2000/svg" width="95.549" height="41.924" viewBox="0 0 95.549 41.924">
  <g id="HP_Life_logo_Black" transform="translate(-49.88 -162.199)">
    <g id="ddC5Og.tif" transform="translate(49.88 162.199)">
      <g id="Group_1928" data-name="Group 1928">
        <path id="Path_1042" data-name="Path 1042" d="M71.638,204.123H70.263a1.8,1.8,0,0,1,.057-.255L74.051,193.6c.153-.423.31-.845.468-1.282h.232q2.757,0,5.517,0a2.34,2.34,0,0,0,.549-.043,2.826,2.826,0,0,0,2.156-1.826c.649-1.764,1.287-3.533,1.931-5.3q1.332-3.663,2.667-7.324a3.376,3.376,0,0,0,.227-1.514,2.374,2.374,0,0,0-1.475-2.041A3.457,3.457,0,0,0,84.873,174q-3.961,0-7.921,0h-.193q-5.379,14.771-10.748,29.521c-.069-.012-.119-.014-.17-.029-.439-.122-.883-.234-1.318-.372a20.978,20.978,0,0,1-14.577-18.743c-.01-.162-.043-.325-.067-.487V182.4a1.653,1.653,0,0,0,.033-.184c.026-.291.05-.582.074-.874a19.869,19.869,0,0,1,.738-4.006,21.008,21.008,0,0,1,13.634-14.116c.27-.088.54-.167.859-.263q-5.357,14.714-10.686,29.357h4.431q2.833-7.778,5.67-15.558h3.347q-1.422,3.9-2.834,7.78l-2.834,7.778h4.424c.031-.079.062-.155.091-.232q.548-1.5,1.093-3.008,2.041-5.6,4.08-11.211a3.536,3.536,0,0,0,.248-1.456,2.368,2.368,0,0,0-1.179-1.979,2.983,2.983,0,0,0-1.564-.423c-1.215-.01-2.43,0-3.645,0h-.227q2.156-5.923,4.288-11.784a21.786,21.786,0,0,1,3.469.122,20.337,20.337,0,0,1,2.877.556,20.636,20.636,0,0,1,11.106,7.351A20.323,20.323,0,0,1,91.8,182.8a19.858,19.858,0,0,1-.625,5.553,20.961,20.961,0,0,1-16.754,15.455,19.034,19.034,0,0,1-2.082.246C72.106,204.063,71.872,204.1,71.638,204.123Z" transform="translate(-49.88 -162.199)"/>
        <path id="Path_1043" data-name="Path 1043" d="M162.007,223.13c-1.557,4.273-3.108,8.53-4.667,12.808h3.345q2.331-6.4,4.667-12.808Z" transform="translate(-131.686 -208.584)"/>
        <path id="Path_1044" data-name="Path 1044" d="M162.007,223.13h3.345q-2.338,6.421-4.667,12.808H157.34Z" transform="translate(-131.686 -208.584)"/>
      </g>
    </g>
    <g id="Group_1929" data-name="Group 1929" transform="translate(101.458 174.086)">
      <path id="Path_1045" data-name="Path 1045" d="M266.214,230.138a.286.286,0,0,1-.284-.284l.129-9.205-.129-8.375a.286.286,0,0,1,.284-.284h1.946a.286.286,0,0,1,.284.284l-.129,8.246.129,7.675h7.935a.286.286,0,0,1,.284.284v1.375a.286.286,0,0,1-.284.284Z" transform="translate(-265.93 -211.99)"/>
      <path id="Path_1046" data-name="Path 1046" d="M319.974,230.138a.286.286,0,0,1-.284-.284l.129-8.945-.129-8.635a.286.286,0,0,1,.284-.284h1.919a.288.288,0,0,1,.286.284l-.129,8.635.129,8.945a.287.287,0,0,1-.286.284Z" transform="translate(-306.856 -211.99)"/>
      <path id="Path_1047" data-name="Path 1047" d="M344.624,230.138a.286.286,0,0,1-.284-.284l.129-8.79-.129-8.79a.286.286,0,0,1,.284-.284h10.554a.288.288,0,0,1,.286.284v1.375a.287.287,0,0,1-.286.284h-8.322l-.129,6.353h8.012a.288.288,0,0,1,.286.284v1.375a.287.287,0,0,1-.286.284h-8.012l.129,7.623a.286.286,0,0,1-.284.284h-1.948Z" transform="translate(-325.621 -211.99)"/>
      <path id="Path_1048" data-name="Path 1048" d="M401.644,230.146a.286.286,0,0,1-.284-.284l.129-9.074-.129-8.5a.286.286,0,0,1,.284-.284h10.865a.286.286,0,0,1,.284.284v1.375a.286.286,0,0,1-.284.284h-8.635l-.129,5.548h8.141a.286.286,0,0,1,.284.284v1.375a.288.288,0,0,1-.284.286h-8.141l.129,6.768h8.843a.286.286,0,0,1,.284.284v1.375a.286.286,0,0,1-.284.284H401.644Z" transform="translate(-369.029 -211.998)"/>
    </g>
  </g>
</svg>
