<svg xmlns="http://www.w3.org/2000/svg" width="69.407" height="30.453" viewBox="0 0 69.407 30.453">
  <g id="HP_Life_logo_Black" transform="translate(-49.88 -162.199)">
    <g id="ddC5Og.tif" transform="translate(49.88 162.199)">
      <g id="Group_1928" data-name="Group 1928">
        <path id="Path_1042" data-name="Path 1042" d="M65.685,192.652h-1a1.31,1.31,0,0,1,.042-.186l2.71-7.455c.111-.307.225-.614.34-.931h.168q2,0,4.008,0a1.7,1.7,0,0,0,.4-.031,2.052,2.052,0,0,0,1.566-1.327c.472-1.282.935-2.566,1.4-3.85q.968-2.661,1.937-5.32a2.452,2.452,0,0,0,.165-1.1,1.724,1.724,0,0,0-1.072-1.483,2.511,2.511,0,0,0-1.053-.2q-2.877,0-5.754,0H69.4Q65.5,181.5,61.6,192.215c-.05-.009-.087-.01-.123-.021-.319-.088-.642-.17-.957-.271a15.239,15.239,0,0,1-10.589-13.615c-.007-.118-.031-.236-.049-.354v-1.082a1.2,1.2,0,0,0,.024-.134c.019-.212.036-.423.054-.635a14.433,14.433,0,0,1,.536-2.91,15.26,15.26,0,0,1,9.9-10.254c.2-.064.392-.121.624-.191q-3.891,10.688-7.762,21.325h3.219q2.058-5.65,4.119-11.3h2.431l-2.058,5.652-2.058,5.65h3.213c.023-.057.045-.113.066-.168q.4-1.092.794-2.185,1.483-4.071,2.964-8.143a2.569,2.569,0,0,0,.18-1.058,1.72,1.72,0,0,0-.857-1.438,2.167,2.167,0,0,0-1.136-.307c-.883-.007-1.765,0-2.648,0h-.165q1.566-4.3,3.114-8.56a15.824,15.824,0,0,1,2.52.088,14.772,14.772,0,0,1,2.09.4,14.99,14.99,0,0,1,8.067,5.339,14.763,14.763,0,0,1,3.219,9.118,14.425,14.425,0,0,1-.454,4.034,15.226,15.226,0,0,1-12.17,11.227,13.826,13.826,0,0,1-1.512.179C66.025,192.609,65.855,192.633,65.685,192.652Z" transform="translate(-49.88 -162.199)"/>
        <path id="Path_1043" data-name="Path 1043" d="M160.73,223.13c-1.131,3.1-2.258,6.2-3.39,9.3h2.43q1.693-4.646,3.39-9.3Z" transform="translate(-138.705 -212.564)"/>
        <path id="Path_1044" data-name="Path 1044" d="M160.73,223.13h2.43q-1.7,4.664-3.39,9.3h-2.43Z" transform="translate(-138.705 -212.564)"/>
      </g>
    </g>
    <g id="Group_1929" data-name="Group 1929" transform="translate(87.346 170.833)">
      <path id="Path_1045" data-name="Path 1045" d="M266.136,225.173a.208.208,0,0,1-.206-.206l.094-6.687-.094-6.083a.208.208,0,0,1,.206-.206h1.413a.208.208,0,0,1,.206.206l-.094,5.99.094,5.575h5.764a.208.208,0,0,1,.206.206v1a.208.208,0,0,1-.206.206Z" transform="translate(-265.93 -211.99)"/>
      <path id="Path_1046" data-name="Path 1046" d="M319.9,225.173a.208.208,0,0,1-.206-.206l.094-6.5-.094-6.272a.208.208,0,0,1,.206-.206h1.394a.209.209,0,0,1,.208.206l-.094,6.272.094,6.5a.208.208,0,0,1-.208.206Z" transform="translate(-310.367 -211.99)"/>
      <path id="Path_1047" data-name="Path 1047" d="M344.546,225.173a.208.208,0,0,1-.206-.206l.094-6.385-.094-6.385a.208.208,0,0,1,.206-.206h7.667a.209.209,0,0,1,.208.206v1a.208.208,0,0,1-.208.206h-6.045l-.094,4.615h5.82a.209.209,0,0,1,.208.206v1a.208.208,0,0,1-.208.206h-5.82l.094,5.537a.208.208,0,0,1-.206.206h-1.415Z" transform="translate(-330.743 -211.99)"/>
      <path id="Path_1048" data-name="Path 1048" d="M401.566,225.181a.208.208,0,0,1-.206-.206l.094-6.591-.094-6.177a.208.208,0,0,1,.206-.206h7.892a.208.208,0,0,1,.206.206v1a.208.208,0,0,1-.206.206h-6.272l-.094,4.03h5.913a.208.208,0,0,1,.206.206v1a.209.209,0,0,1-.206.208h-5.913l.094,4.916h6.423a.208.208,0,0,1,.206.206v1a.208.208,0,0,1-.206.206h-8.043Z" transform="translate(-377.875 -211.998)"/>
    </g>
  </g>
</svg>
