<svg xmlns="http://www.w3.org/2000/svg" xmlns:xlink="http://www.w3.org/1999/xlink" width="26.74" height="26.74" viewBox="0 0 26.74 26.74">
  <defs>
    <clipPath id="clip-path">
      <rect id="Rectangle_573" data-name="Rectangle 573" width="26.74" height="26.74" fill="#142341"/>
    </clipPath>
  </defs>
  <g id="Group_842" data-name="Group 842" transform="translate(0 0)">
    <g id="Group_841" data-name="Group 841" transform="translate(0 0)" clip-path="url(#clip-path)">
      <path id="Path_457" data-name="Path 457" d="M13.37,26.74A13.37,13.37,0,1,1,26.74,13.37,13.385,13.385,0,0,1,13.37,26.74m0-26.1A12.734,12.734,0,1,0,26.1,13.37,12.748,12.748,0,0,0,13.37.636" transform="translate(0 0)" fill="#142341"/>
      <path id="Path_458" data-name="Path 458" d="M18.56,25.023a.707.707,0,0,1,.785-.481c.29.016.582.006.873,0a.163.163,0,0,0,.122-.08c.175-.429.342-.861.521-1.317-.225-.224-.478-.476-.731-.73a.625.625,0,0,1,0-.97q.623-.622,1.249-1.241a.62.62,0,0,1,.949,0c.248.246.493.494.74.741.007.007.016.011,0,0,.386-.159.761-.314,1.136-.467a.634.634,0,0,1,.125-.036c.1-.017.133-.063.131-.168-.008-.315,0-.63,0-.946a.624.624,0,0,1,.7-.688H26.9a.614.614,0,0,1,.665.645c.007.334,0,.669,0,1,0,.066.006.108.087.138.43.16.855.331,1.321.513.2-.206.439-.448.678-.687a.648.648,0,0,1,1.064,0q.585.588,1.169,1.177a.634.634,0,0,1-.008,1c-.243.243-.484.49-.715.725.149.36.307.718.445,1.082.112.295.1.3.42.3.257,0,.514,0,.771,0a.619.619,0,0,1,.665.676q0,.88,0,1.761a.617.617,0,0,1-.655.671c-.33.005-.66,0-.99,0a.171.171,0,0,0-.132.068c-.178.433-.348.869-.528,1.327l.711.712a.637.637,0,0,1,0,1.012q-.6.6-1.194,1.194a.632.632,0,0,1-1,0l-.723-.719-1.386.576c0,.319.007.667,0,1.015a1.164,1.164,0,0,1-.08.392.669.669,0,0,1-.394.32H24.936a.707.707,0,0,1-.481-.785c.015-.29.006-.582,0-.873a.164.164,0,0,0-.079-.123c-.428-.176-.86-.344-1.317-.524-.224.224-.477.479-.731.731a.626.626,0,0,1-.971,0q-.609-.606-1.215-1.214a.632.632,0,0,1,0-1c.247-.246.491-.5.71-.716-.174-.447-.34-.88-.514-1.309a.164.164,0,0,0-.122-.08c-.291-.007-.583-.016-.873,0a.708.708,0,0,1-.785-.481Zm2,5.21,1.312,1.338c.305-.308.616-.622.928-.933a.313.313,0,0,1,.42-.071,5.536,5.536,0,0,0,1.616.667.3.3,0,0,1,.242.334c0,.4,0,.8,0,1.194v.158h1.846v-.167c0-.373,0-.747,0-1.12,0-.258.072-.348.319-.409a5.31,5.31,0,0,0,1.5-.621c.243-.148.337-.137.536.062l.879.885,1.32-1.319c-.3-.3-.614-.608-.926-.92a.313.313,0,0,1-.071-.42,5.512,5.512,0,0,0,.667-1.617.3.3,0,0,1,.334-.242c.4,0,.8,0,1.193,0h.159V25.185H31.561c-.28,0-.36-.062-.428-.331a5.363,5.363,0,0,0-.617-1.481c-.151-.249-.14-.336.071-.546l.875-.871-1.315-1.318-.9.9a.334.334,0,0,1-.491.064,5.325,5.325,0,0,0-1.494-.625c-.239-.061-.309-.153-.31-.4,0-.213,0-.427,0-.64v-.655H25.1v.17c0,.379,0,.757,0,1.135a.334.334,0,0,1-.3.384,5.278,5.278,0,0,0-1.536.636.332.332,0,0,1-.491-.061c-.282-.281-.563-.563-.844-.844-.029-.029-.062-.054-.073-.063l-1.334,1.333c.307.294.627.6.943.906a.321.321,0,0,1,.064.456,5.371,5.371,0,0,0-.645,1.563.309.309,0,0,1-.344.268H19.348c-.051,0-.1,0-.154.006v1.84h.168c.378,0,.757,0,1.135,0a.336.336,0,0,1,.39.305,5.229,5.229,0,0,0,.609,1.485c.153.254.141.351-.068.56l-.867.867" transform="translate(-12.656 -12.716)" fill="#142341"/>
      <path id="Path_459" data-name="Path 459" d="M38.794,36.093a2.794,2.794,0,1,1-2.78-2.8,2.788,2.788,0,0,1,2.78,2.8m-.624-.005a2.17,2.17,0,1,0-2.176,2.168,2.169,2.169,0,0,0,2.176-2.168" transform="translate(-22.643 -22.701)" fill="#142341"/>
    </g>
  </g>
</svg>
