<svg xmlns="http://www.w3.org/2000/svg" xmlns:xlink="http://www.w3.org/1999/xlink" width="27.55" height="27.55" viewBox="0 0 27.55 27.55">
  <defs>
    <clipPath id="clip-path">
      <rect id="Rectangle_555" data-name="Rectangle 555" width="27.55" height="27.55" fill="none"/>
    </clipPath>
  </defs>
  <g id="Group_831" data-name="Group 831" transform="translate(0 0)">
    <g id="Group_830" data-name="Group 830" transform="translate(0 0)" clip-path="url(#clip-path)">
      <path id="Path_440" data-name="Path 440" d="M21.311,36.671l11.674-11.8-1.732-1.741L21.312,33.194l-3.8-3.912-1.737,1.731,5.533,5.658" transform="translate(-10.607 -15.55)" fill="#fff"/>
      <path id="Path_441" data-name="Path 441" d="M21.311,36.671l-5.533-5.658,1.737-1.731,3.8,3.912,9.941-10.063,1.732,1.741-11.674,11.8" transform="translate(-10.607 -15.55)" fill="#1a1818"/>
      <path id="Path_442" data-name="Path 442" d="M13.774,27.55A13.775,13.775,0,1,1,27.549,13.775,13.79,13.79,0,0,1,13.774,27.55m0-26.894A13.119,13.119,0,1,0,26.894,13.775,13.134,13.134,0,0,0,13.774.655" transform="translate(0 0)" fill="#1a1818"/>
    </g>
  </g>
</svg>
