<?xml version="1.0" encoding="utf-8"?>
<!-- Generator: Adobe Illustrator 26.0.3, SVG Export Plug-In . SVG Version: 6.00 Build 0)  -->
<svg version="1.1" id="Layer_1" xmlns="http://www.w3.org/2000/svg" xmlns:xlink="http://www.w3.org/1999/xlink" x="0px" y="0px"
	 viewBox="0 0 100 100" style="enable-background:new 0 0 100 100;" xml:space="preserve">
<style type="text/css">
	.st0{fill:#FFFFFF;}
</style>
<g id="Group_450" transform="translate(21 -565)">
	<path id="ic_search_24px_00000177476140828957775000000005532327815200936581_" class="st0" d="M42.6,623.39h-2.85l-1.01-1
		c8.46-10.11,7.33-25.35-2.53-34.03c-9.85-8.68-24.7-7.52-33.16,2.59c-8.46,10.11-7.33,25.35,2.53,34.03
		c8.81,7.76,21.82,7.76,30.63,0l0.98,1.04v2.93l18.06,18.51l5.39-5.53L42.6,623.39z M20.92,623.39c-8.98,0-16.26-7.47-16.26-16.69
		s7.28-16.69,16.26-16.69s16.26,7.47,16.26,16.69l0,0c0.01,9.2-7.25,16.67-16.21,16.69C20.95,623.39,20.94,623.39,20.92,623.39z"/>
</g>
</svg>
