<?xml version="1.0" encoding="utf-8"?>
<!-- Generator: Adobe Illustrator 26.0.3, SVG Export Plug-In . SVG Version: 6.00 Build 0)  -->
<svg version="1.1" id="Layer_1" xmlns="http://www.w3.org/2000/svg" xmlns:xlink="http://www.w3.org/1999/xlink" x="0px" y="0px"
	 viewBox="0 0 100 100" style="enable-background:new 0 0 100 100;" xml:space="preserve">
<g id="Et8Oqh.tif">
	<g>
		<path d="M18.35,32.36c21.1,0,42.21,0,63.45,0c-0.2,0.16-0.3,0.26-0.43,0.34c-9.98,6.26-19.96,12.53-29.95,18.79
			c-0.92,0.58-1.9,0.59-2.77,0.04c-10-6.27-20.01-12.55-30.01-18.82c-0.11-0.07-0.22-0.15-0.33-0.23
			C18.32,32.43,18.33,32.4,18.35,32.36z"/>
		<path d="M43.51,51.77c1.83,1.05,3.61,2.06,5.37,3.08c0.76,0.44,1.49,0.44,2.25,0c1.77-1.02,3.54-2.03,5.38-3.08
			c7.12,5.23,14.31,10.5,21.61,15.87c-18.8,0-37.43,0-56.22,0C29.18,62.29,36.35,57.03,43.51,51.77z"/>
		<path d="M17.67,66.55c0-10.26,0-20.37,0-30.55c7.59,4.71,15.13,9.39,22.78,14.14C32.87,55.6,25.34,61.02,17.67,66.55z"/>
		<path d="M82.33,36c0,10.18,0,20.29,0,30.54c-7.64-5.5-15.16-10.92-22.77-16.41C67.18,45.41,74.74,40.72,82.33,36z"/>
	</g>
</g>
</svg>
